<svg viewBox="208 328.9302 380 67.1396" width="5000" height="883.4157894736842" xmlns="http://www.w3.org/2000/svg" xmlns:xlink="http://www.w3.org/1999/xlink" preserveAspectRatio="none"><defs></defs><style>.aD6z1nYkhcolor {fill:#FFFFFF;fill-opacity:1;}.aD6z1nYkhstrokeColor-str {stroke:#D9D9D9;stroke-opacity:1;}.aR9TavoXYfillColor {fill:#FFFFFF;fill-opacity:0.98;}.aR9TavoXYstrokeColor-str {stroke:#D9D9D9;stroke-opacity:1;}.asr1BtIxlfillColor {fill:#FFFFFF;fill-opacity:0.98;}.asr1BtIxlstrokeColor-str {stroke:#D9D9D9;stroke-opacity:1;}</style><g opacity="1" transform="rotate(0 382.71 328.9302)">
<svg width="30.58" height="24.1916" x="382.71" y="328.9302" version="1.1" preserveAspectRatio="none" viewBox="25.9679012298584 30.976905822753903 48.06419372558594 38.023284912109375">
  <g transform="matrix(1 0 0 1 0 0)" style="fill:#FFFFFF;fill-opacity:0.98;"><title>Artboard 265</title><path d="M32,69H68a2,2,0,0,0,2-1.67l4-24a2,2,0,0,0-3-2.07L58.93,48.17l-7.1-16a2,2,0,0,0-3.66,0l-7.1,16L29,41.26a2,2,0,0,0-3,2.07l4,24A2,2,0,0,0,32,69Zm9-16.26a2,2,0,0,0,1.61.16,2,2,0,0,0,1.21-1.09L50,37.92l6.17,13.89a2,2,0,0,0,1.21,1.09A2,2,0,0,0,59,52.74l10.34-5.91L66.31,65H33.69l-3-18.17Z"></path></g>
</svg>
</g><g opacity="1" transform="rotate(0 208 345.1033)">
<svg width="159.4201" height="2.0387" x="208" y="345.1033" version="1.1" preserveAspectRatio="none" viewBox="0 0 159.4201 2.0387">
  <defs><rect x="0" y="0" width="159.4201" height="2.0387" rx="0px" ry="0px" id="id-sr1BtIxl"></rect></defs><use class="asr1BtIxlfillColor asr1BtIxlstrokeColor-str" style="stroke-width:0;" xlink:href="#id-sr1BtIxl"></use>
</svg>
</g><g opacity="1" transform="rotate(0 428.5799 345.1033)">
<svg width="159.4201" height="2.0387" x="428.5799" y="345.1033" version="1.1" preserveAspectRatio="none" viewBox="0 0 159.4201 2.0387">
  <defs><rect x="0" y="0" width="159.4201" height="2.0387" rx="0px" ry="0px" id="id-R9TavoXY"></rect></defs><use class="aR9TavoXYfillColor aR9TavoXYstrokeColor-str" style="stroke-width:0;" xlink:href="#id-R9TavoXY"></use>
</svg>
</g><g opacity="1" transform="rotate(0 208 371.6059)">
<svg width="380" height="24.4639" x="208" y="371.6059" version="1.1" preserveAspectRatio="none" viewBox="2.4 -28.56 452.32000000000005 29.12">
  <g transform="matrix(1 0 0 1 0 0)" class="aD6z1nYkhcolor"><path id="id-D6z1nYkh18" d="M15.96-28Q22.36-28 26.34-24.14Q30.32-20.28 30.32-14Q30.32-7.72 26.34-3.86Q22.36 0 15.96 0L15.96 0L2.40 0L2.40-0.40L2.92-0.40Q3.96-0.40 4.70-1.14Q5.44-1.88 5.48-2.92L5.48-2.92L5.48-25.32Q5.48-26.28 4.70-26.94Q3.92-27.60 2.92-27.60L2.92-27.60L2.44-27.60L2.40-28L15.96-28ZM15.96-26.80L8.08-26.80L8.08-1.20L15.96-1.20Q19.32-1.20 21.90-2.80Q24.48-4.40 25.90-7.30Q27.32-10.20 27.32-14L27.32-14Q27.32-19.76 24.18-23.28Q21.04-26.80 15.96-26.80L15.96-26.80Z M59.28-0.40L59.28-0.40L59.60-0.40L59.60 0L51.40 0L51.40-0.40L51.72-0.40Q52.48-0.40 52.88-0.92Q53.28-1.44 53.28-1.90Q53.28-2.36 53.12-2.80L53.12-2.80L50.92-8.12L40.80-8.12L38.60-2.92Q38.40-2.40 38.40-1.94Q38.40-1.48 38.80-0.94Q39.20-0.40 40-0.40L40-0.40L40.32-0.40L40.32 0L32.68 0L32.68-0.40L33-0.40Q33.84-0.40 34.70-0.98Q35.56-1.56 36.12-2.72L36.12-2.72Q44.88-21.44 45.24-22.32L45.24-22.32Q45.92-24 45.96-24.56L45.96-24.56L46.32-24.56L56.20-2.72Q57.36-0.40 59.28-0.40ZM45.96-20.28L41.32-9.32L50.44-9.32L45.96-20.28Z M63.72-1.32L63.72-1.32Q63.60-1.80 63.60-3.28Q63.60-4.76 64.12-6.28L64.12-6.28L64.60-6.28Q64.56-5.92 64.56-5.56L64.56-5.56Q64.56-3.40 65.98-2.02Q67.40-0.64 69.92-0.64L69.92-0.64Q72.56-0.64 74.04-1.86Q75.52-3.08 75.52-5.02Q75.52-6.96 74.08-8.24L74.08-8.24L66.08-14.40Q64.16-16.04 64.16-18.80L64.16-18.80Q64.16-20.36 65.02-21.68Q65.88-23 67.42-23.78Q68.96-24.56 71.04-24.56Q73.12-24.56 74.72-24.20L74.72-24.20L76.04-24.20L76.12-19.84L75.68-19.84Q75.68-21.52 74.52-22.44Q73.36-23.36 71.20-23.36Q69.04-23.36 67.64-22.26Q66.24-21.16 66.24-19.42Q66.24-17.68 67.80-16.40L67.80-16.40L75.88-10.16Q77.72-8.64 77.72-5.92Q77.72-3.20 75.66-1.32Q73.60 0.56 70.64 0.56L70.64 0.56Q68.68 0.56 66.72 0.08Q64.76-0.40 63.72-1.32Z M122.48-0.40L122.48-0.40L122.80-0.40L122.80 0L113.80 0L113.80-0.40L114.16-0.40Q115.00-0.40 115.42-0.94Q115.84-1.48 115.84-1.96Q115.84-2.44 115.68-2.92L115.68-2.92L113.12-9.72L102.32-9.72L99.64-2.88Q99.48-2.40 99.48-1.94Q99.48-1.48 99.90-0.94Q100.32-0.40 101.16-0.40L101.16-0.40L101.52-0.40L101.52 0L93.48 0L93.48-0.40L93.84-0.40Q94.84-0.40 95.80-1.04Q96.76-1.68 97.36-2.92L97.36-2.92L106.40-24.44Q107.88-27.68 107.88-28.56L107.88-28.56L108.24-28.56L118.96-2.92Q119.52-1.68 120.48-1.04Q121.44-0.40 122.48-0.40ZM107.84-23.76L102.80-10.92L112.64-10.92L107.84-23.76Z M154.12-23.60L153.44-23.60Q152.56-23.60 151.92-23.02Q151.28-22.44 151.24-21.60L151.24-21.60L151.24-4.56Q151.24-2.24 151.52-0.16L151.52-0.16L151.60 0.56L151.24 0.56L130.44-19.16L130.44-2.48Q130.44-1.60 131.08-1Q131.72-0.40 132.64-0.40L132.64-0.40L133.32-0.40L133.32 0L125.76 0L125.76-0.40L126.44-0.40Q127.36-0.40 128-1Q128.64-1.60 128.64-2.48L128.64-2.48L128.64-19.60Q128.64-22.04 128.36-23.96L128.36-23.96L128.28-24.60L128.72-24.56L149.48-5L149.48-21.60Q149.40-22.44 148.76-23.02Q148.12-23.60 147.24-23.60L147.24-23.60L146.56-23.60L146.56-24L154.12-24L154.12-23.60Z M185.92-12L185.92-12Q185.92-6.44 182.46-3.22Q179 0 173.08 0L173.08 0L159.72 0L159.72-0.40L160.24-0.40Q161.20-0.40 161.84-1.04Q162.48-1.68 162.52-2.56L162.52-2.56L162.52-21.44Q162.48-22.40 161.82-23Q161.16-23.60 160.20-23.60L160.20-23.60L159.72-23.60L159.72-24L173.08-24Q177-24 179.90-22.56Q182.80-21.12 184.36-18.40Q185.92-15.68 185.92-12ZM173.08-22.80L165.12-22.80L165.12-1.20L173.08-1.20Q177.68-1.20 180.36-4.10Q183.04-7 183.04-12L183.04-12Q183.04-17 180.36-19.90Q177.68-22.80 173.08-22.80L173.08-22.80Z M214.08 0L214.08 0L204.32 0L204.36-0.40L204.84-0.40Q205.88-0.40 206.62-1.12Q207.36-1.84 207.40-2.88L207.40-2.88L207.40-25.12Q207.40-26.16 206.64-26.88Q205.88-27.60 204.84-27.60L204.84-27.60L204.36-27.60L204.32-28L212.28-28Q216.40-28 218.68-26.18Q220.96-24.36 220.96-21.32L220.96-21.32Q220.96-18.92 219.68-17.34Q218.40-15.76 216.56-15.24L216.56-15.24Q219.72-14.76 221.56-12.64Q223.40-10.52 223.40-7.30Q223.40-4.08 220.94-2.04Q218.48 0 214.08 0ZM210.00-26.72L210.00-1.44L213.92-1.44Q213.96-1.44 214.00-1.44L214.00-1.44Q217.04-1.44 218.72-3.10Q220.40-4.76 220.40-7.80L220.40-7.80Q220.40-9.52 219.82-10.82Q219.24-12.12 218.36-12.88L218.36-12.88Q216.04-14.80 211.40-14.80L211.40-14.80Q211.40-14.80 211.36-14.80L211.36-14.80L211.36-15.16Q211.40-15.16 211.74-15.16Q212.08-15.16 212.72-15.24Q213.36-15.32 214.16-15.52Q214.96-15.72 215.60-16.16Q216.24-16.60 216.80-17.20L216.80-17.20Q217.96-18.52 217.96-21.14Q217.96-23.76 216.46-25.24Q214.96-26.72 212.12-26.72L212.12-26.72L210.00-26.72Z M236.64-22.76L236.64-22.76L234.52-22.76L234.52-2.56Q234.56-1.32 235.64-0.68L235.64-0.68Q236.16-0.40 236.80-0.40L236.80-0.40L237.32-0.40L237.36 0L229.16 0L229.16-0.40L229.72-0.40Q230.64-0.40 231.30-1.02Q231.96-1.64 231.96-2.52L231.96-2.52L231.96-21.52Q231.96-22.40 231.30-23Q230.64-23.60 229.72-23.60L229.72-23.60L229.16-23.60L229.16-24L239.20-24Q242.96-24 245.14-22.28Q247.32-20.56 247.32-17.76Q247.32-14.96 245.56-13.08Q243.80-11.20 241.08-10.92L241.08-10.92Q242.36-10.36 244.16-7.80L244.16-7.80Q244.12-7.80 245.54-6.04Q246.96-4.28 247.82-3.30Q248.68-2.32 249.24-1.80L249.24-1.80Q250.72-0.40 252.64-0.40L252.64-0.40L252.64 0L251.40 0Q248.24 0 246.44-1.24L246.44-1.24Q245.08-2.16 243.96-3.52L243.96-3.52Q243.72-3.84 241.94-6.34Q240.16-8.84 240.04-9L240.04-9Q237.88-11.68 236-11.68L236-11.68L236-12.08Q240.68-12.08 241.64-12.56L241.64-12.56Q242.96-13.24 243.44-14L243.44-14Q244.44-15.60 244.44-17.52L244.44-17.52Q244.44-19.96 243-21.28Q241.56-22.60 239.12-22.72L239.12-22.72Q238.04-22.76 236.64-22.76Z M261.36-22.98Q264.44-24.56 268.14-24.56Q271.84-24.56 274.92-22.98Q278-21.40 279.82-18.52Q281.64-15.64 281.64-12Q281.64-8.36 279.82-5.48Q278-2.60 274.92-1.02Q271.84 0.56 268.60 0.56Q265.36 0.56 262.88-0.36Q260.40-1.28 258.58-2.92Q256.76-4.56 255.70-6.92Q254.64-9.28 254.64-12.46Q254.64-15.64 256.46-18.52Q258.28-21.40 261.36-22.98ZM260.62-3.82Q263.64-0.64 268.12-0.64Q272.60-0.64 275.64-3.82Q278.68-7 278.68-12Q278.68-17 275.64-20.18Q272.60-23.36 268.12-23.36Q263.64-23.36 260.62-20.18Q257.60-17 257.60-12Q257.60-7 260.62-3.82Z M287.92-1.32L287.92-1.32Q287.80-1.80 287.80-3.28Q287.80-4.76 288.32-6.28L288.32-6.28L288.80-6.28Q288.76-5.92 288.76-5.56L288.76-5.56Q288.76-3.40 290.18-2.02Q291.60-0.64 294.12-0.64L294.12-0.64Q296.76-0.64 298.24-1.86Q299.72-3.08 299.72-5.02Q299.72-6.96 298.28-8.24L298.28-8.24L290.28-14.40Q288.36-16.04 288.36-18.80L288.36-18.80Q288.36-20.36 289.22-21.68Q290.08-23 291.62-23.78Q293.16-24.56 295.24-24.56Q297.32-24.56 298.92-24.20L298.92-24.20L300.24-24.20L300.32-19.84L299.88-19.84Q299.88-21.52 298.72-22.44Q297.56-23.36 295.40-23.36Q293.24-23.36 291.84-22.26Q290.44-21.16 290.44-19.42Q290.44-17.68 292-16.40L292-16.40L300.08-10.16Q301.92-8.64 301.92-5.92Q301.92-3.20 299.86-1.32Q297.80 0.56 294.84 0.56L294.84 0.56Q292.88 0.56 290.92 0.08Q288.96-0.40 287.92-1.32Z M354.08-0.40L354.08-0.40L354.72-0.40L354.72 0L346.04 0L346.04-0.36L346.64-0.36Q347.32-0.36 347.80-0.90Q348.28-1.44 348.20-2.08L348.20-2.08L346.40-22.20L338.00-3.52Q336.88-1.08 336.64 0.56L336.64 0.56L336.24 0.56L326.00-21.64L324.28-2.08Q324.20-1.44 324.68-0.90Q325.16-0.36 325.80-0.36L325.80-0.36L326.44-0.36L326.44 0L318.68 0L318.68-0.40L319.32-0.40Q320.44-0.40 321.26-1.08Q322.08-1.76 322.24-2.92L322.24-2.92L325.24-28.56L325.64-28.56L336.80-4.44L347.72-28.56L348.08-28.56L351.16-2.92Q351.36-1.32 352.76-0.68L352.76-0.68Q353.36-0.40 354.08-0.40Z M359.52-0.40L360.08-0.40Q361.04-0.40 361.70-1.02Q362.36-1.64 362.40-2.52L362.40-2.52L362.40-21.52Q362.40-22.40 361.72-23Q361.04-23.60 360.08-23.60L360.08-23.60L359.52-23.60L359.52-24L371.20-24Q372.84-24 374.08-24.24Q375.32-24.48 375.68-24.64L375.68-24.64L375.68-20.08L375.24-20.12L375.24-20.72Q375.24-21.56 374.68-22.16Q374.12-22.76 373.24-22.76L373.24-22.76L364.92-22.76L364.92-12.60L371.76-12.60Q372.56-12.60 372.98-13.08Q373.40-13.56 373.40-14.28L373.40-14.28L373.40-14.80L373.84-14.80L373.84-9.20L373.40-9.20L373.40-9.72Q373.40-10.84 372.56-11.24L372.56-11.24Q372.24-11.36 371.88-11.40L371.88-11.40L364.92-11.40L364.92-1.24L371.20-1.24Q373.04-1.24 374.30-1.88Q375.56-2.52 376.22-3.40Q376.88-4.28 377.56-5.72L377.56-5.72L377.96-5.72L375.76 0L359.52 0L359.52-0.40Z M409.16-12L409.16-12Q409.16-6.44 405.70-3.22Q402.24 0 396.32 0L396.32 0L382.96 0L382.96-0.40L383.48-0.40Q384.44-0.40 385.08-1.04Q385.72-1.68 385.76-2.56L385.76-2.56L385.76-21.44Q385.72-22.40 385.06-23Q384.40-23.60 383.44-23.60L383.44-23.60L382.96-23.60L382.96-24L396.32-24Q400.24-24 403.14-22.56Q406.04-21.12 407.60-18.40Q409.16-15.68 409.16-12ZM396.32-22.80L388.36-22.80L388.36-1.20L396.32-1.20Q400.92-1.20 403.60-4.10Q406.28-7 406.28-12L406.28-12Q406.28-17 403.60-19.90Q400.92-22.80 396.32-22.80L396.32-22.80Z M414.76-0.40L415.32-0.40Q416.40-0.40 417.20-1.04Q418-1.68 418-2.56L418-2.56L418-21.44Q418-22.32 417.20-22.96Q416.40-23.60 415.28-23.60L415.28-23.60L414.76-23.60L414.76-24L423.80-24L423.80-23.60L423.28-23.60Q422.20-23.60 421.42-23Q420.64-22.40 420.56-21.52L420.56-21.52L420.56-2.52Q420.60-1.64 421.40-1.02Q422.20-0.40 423.28-0.40L423.28-0.40L423.80-0.40L423.84 0L414.76 0L414.76-0.40Z M454.40-0.40L454.40-0.40L454.72-0.40L454.72 0L446.52 0L446.52-0.40L446.84-0.40Q447.60-0.40 448-0.92Q448.40-1.44 448.40-1.90Q448.40-2.36 448.24-2.80L448.24-2.80L446.04-8.12L435.92-8.12L433.72-2.92Q433.52-2.40 433.52-1.94Q433.52-1.48 433.92-0.94Q434.32-0.40 435.12-0.40L435.12-0.40L435.44-0.40L435.44 0L427.80 0L427.80-0.40L428.12-0.40Q428.96-0.40 429.82-0.98Q430.68-1.56 431.24-2.72L431.24-2.72Q440-21.44 440.36-22.32L440.36-22.32Q441.04-24 441.08-24.56L441.08-24.56L441.44-24.56L451.32-2.72Q452.48-0.40 454.40-0.40ZM441.08-20.28L436.44-9.32L445.56-9.32L441.08-20.28Z"/></g>
</svg>
</g></svg>